<svg xmlns="http://www.w3.org/2000/svg" viewBox="0 0 64 64">
  <circle cx="32" cy="32" r="32" fill="#f7931a" />
  <g fill="#ffffff" transform="translate(32 32) rotate(-12)">
    <rect x="-8" y="-22" width="2.8" height="44" rx="1.4" />
    <rect x="5.2" y="-22" width="2.8" height="44" rx="1.4" />
    <path d="M-14 -18H2.5c8.4 0 13.5 4.3 13.5 11.1 0 4.8-2.8 8.2-7.4 9.7C14.5 4.3 18 8 18 14c0 7.9-6.1 12.8-15.6 12.8H-14v-6.9h4.7V-11.1H-14ZM-2.3-11.1V0h4.1c4.6 0 7.1-2 7.1-5.7 0-3.6-2.5-5.4-7.1-5.4Zm0 18V19h5.5c4.8 0 7.5-2.1 7.5-6 0-4.1-2.9-6.1-8.2-6.1Z" />
  </g>
</svg>
